<svg width="78" height="78" viewBox="0 0 78 78" fill="none" xmlns="http://www.w3.org/2000/svg">
<circle cx="39" cy="39" r="38" stroke="#90EE90" stroke-width="2"/>
<path d="M46.9964 52.7964C45.3682 54.3795 43.5904 54.1295 41.879 53.3796C40.068 52.6131 38.4065 52.5797 36.4958 53.3796C34.1032 54.4128 32.8405 54.1129 31.4116 52.7964C23.3035 44.4141 24.4998 31.649 33.7045 31.1824C35.9475 31.2991 37.5093 32.4156 38.8219 32.5156C40.7824 32.1156 42.6599 30.9658 44.7534 31.1158C47.2623 31.3157 49.1564 32.3156 50.4025 34.1154C45.2186 37.2317 46.4481 44.0808 51.2 45.9972C50.253 48.4969 49.0234 50.9799 46.9798 52.813L46.9964 52.7964ZM38.6557 31.0824C38.4065 27.3662 41.4138 24.3 44.8697 24C45.3515 28.2995 40.9818 31.4991 38.6557 31.0824Z" fill="#90EE90"/>
</svg>
